<svg width="21" height="24" viewBox="0 0 21 24" fill="none" xmlns="http://www.w3.org/2000/svg">
<path d="M1.74999 20.75C1.74999 22.125 3.06249 23.25 4.66666 23.25H16.3333C17.9375 23.25 19.25 22.125 19.25 20.75V8.25C19.25 6.875 17.9375 5.75 16.3333 5.75H4.66666C3.06249 5.75 1.74999 6.875 1.74999 8.25V20.75ZM19.25 2H15.6042L14.5687 1.1125C14.3062 0.8875 13.9271 0.75 13.5479 0.75H7.45207C7.07291 0.75 6.69374 0.8875 6.43124 1.1125L5.39582 2H1.74999C0.947906 2 0.291656 2.5625 0.291656 3.25C0.291656 3.9375 0.947906 4.5 1.74999 4.5H19.25C20.0521 4.5 20.7083 3.9375 20.7083 3.25C20.7083 2.5625 20.0521 2 19.25 2Z" fill="white"/>
</svg>
